<svg xmlns="http://www.w3.org/2000/svg" viewBox="0 0 100 100" preserveAspectRatio="xMidYMid" width="211" height="211" style="shape-rendering: auto; display: block; background: transparent;" xmlns:xlink="http://www.w3.org/1999/xlink"><g><g transform="rotate(0 50 50)">
  <rect fill="#037ef3" height="12" width="6" ry="6" rx="3" y="25" x="47">
    <animate repeatCount="indefinite" begin="-0.18915510718789408s" dur="0.20491803278688525s" keyTimes="0;1" values="1;0" attributeName="opacity"></animate>
  </rect>
</g><g transform="rotate(27.692307692307693 50 50)">
  <rect fill="#f85a40" height="12" width="6" ry="6" rx="3" y="25" x="47">
    <animate repeatCount="indefinite" begin="-0.1733921815889029s" dur="0.20491803278688525s" keyTimes="0;1" values="1;0" attributeName="opacity"></animate>
  </rect>
</g><g transform="rotate(55.38461538461539 50 50)">
  <rect fill="#30c39e" height="12" width="6" ry="6" rx="3" y="25" x="47">
    <animate repeatCount="indefinite" begin="-0.15762925598991173s" dur="0.20491803278688525s" keyTimes="0;1" values="1;0" attributeName="opacity"></animate>
  </rect>
</g><g transform="rotate(83.07692307692308 50 50)">
  <rect fill="#0a8ea0" height="12" width="6" ry="6" rx="3" y="25" x="47">
    <animate repeatCount="indefinite" begin="-0.14186633039092056s" dur="0.20491803278688525s" keyTimes="0;1" values="1;0" attributeName="opacity"></animate>
  </rect>
</g><g transform="rotate(110.76923076923077 50 50)">
  <rect fill="#f48924" height="12" width="6" ry="6" rx="3" y="25" x="47">
    <animate repeatCount="indefinite" begin="-0.12610340479192939s" dur="0.20491803278688525s" keyTimes="0;1" values="1;0" attributeName="opacity"></animate>
  </rect>
</g><g transform="rotate(138.46153846153845 50 50)">
  <rect fill="#ffc845" height="12" width="6" ry="6" rx="3" y="25" x="47">
    <animate repeatCount="indefinite" begin="-0.11034047919293821s" dur="0.20491803278688525s" keyTimes="0;1" values="1;0" attributeName="opacity"></animate>
  </rect>
</g><g transform="rotate(166.15384615384616 50 50)">
  <rect fill="#52565e" height="12" width="6" ry="6" rx="3" y="25" x="47">
    <animate repeatCount="indefinite" begin="-0.09457755359394704s" dur="0.20491803278688525s" keyTimes="0;1" values="1;0" attributeName="opacity"></animate>
  </rect>
</g><g transform="rotate(193.84615384615384 50 50)">
  <rect fill="#caccd1" height="12" width="6" ry="6" rx="3" y="25" x="47">
    <animate repeatCount="indefinite" begin="-0.07881462799495587s" dur="0.20491803278688525s" keyTimes="0;1" values="1;0" attributeName="opacity"></animate>
  </rect>
</g><g transform="rotate(221.53846153846155 50 50)">
  <rect fill="#f3f4f7" height="12" width="6" ry="6" rx="3" y="25" x="47">
    <animate repeatCount="indefinite" begin="-0.06305170239596469s" dur="0.20491803278688525s" keyTimes="0;1" values="1;0" attributeName="opacity"></animate>
  </rect>
</g><g transform="rotate(249.23076923076923 50 50)">
  <rect fill="#037ef3" height="12" width="6" ry="6" rx="3" y="25" x="47">
    <animate repeatCount="indefinite" begin="-0.04728877679697352s" dur="0.20491803278688525s" keyTimes="0;1" values="1;0" attributeName="opacity"></animate>
  </rect>
</g><g transform="rotate(276.9230769230769 50 50)">
  <rect fill="#f85a40" height="12" width="6" ry="6" rx="3" y="25" x="47">
    <animate repeatCount="indefinite" begin="-0.031525851197982346s" dur="0.20491803278688525s" keyTimes="0;1" values="1;0" attributeName="opacity"></animate>
  </rect>
</g><g transform="rotate(304.61538461538464 50 50)">
  <rect fill="#30c39e" height="12" width="6" ry="6" rx="3" y="25" x="47">
    <animate repeatCount="indefinite" begin="-0.015762925598991173s" dur="0.20491803278688525s" keyTimes="0;1" values="1;0" attributeName="opacity"></animate>
  </rect>
</g><g transform="rotate(332.3076923076923 50 50)">
  <rect fill="#0a8ea0" height="12" width="6" ry="6" rx="3" y="25" x="47">
    <animate repeatCount="indefinite" begin="0s" dur="0.20491803278688525s" keyTimes="0;1" values="1;0" attributeName="opacity"></animate>
  </rect>
</g><g></g></g><!-- [ldio] generated by https://loading.io --></svg>